<svg width="30" height="24" viewBox="0 0 30 24" fill="none" xmlns="http://www.w3.org/2000/svg">
<path d="M29.999 0.846924L29.0703 3.34009H26.659L22.3165 18.2991H5.76777L-0.000976562 4.58667H21.014L20.309 7.07984H3.75902L7.43027 15.8059H20.4653L24.7553 0.846924H29.999ZM10.624 19.5457C9.58902 19.5457 8.74902 20.3834 8.74902 21.4156C8.74902 22.449 9.58902 23.2854 10.624 23.2854C11.659 23.2854 12.499 22.449 12.499 21.4156C12.499 20.3834 11.659 19.5457 10.624 19.5457ZM19.249 10.8196L16.874 19.5457C15.839 19.5457 14.999 20.3821 14.999 21.4156C14.999 22.449 15.839 23.2854 16.874 23.2854C17.909 23.2854 18.749 22.449 18.749 21.4156C18.749 20.3834 17.909 19.5457 16.874 19.5457L19.249 10.8196Z" fill="#2F3035"/>
</svg>
