<svg width="24" height="23" viewBox="0 0 24 23" fill="none" xmlns="http://www.w3.org/2000/svg">
<path d="M12 9.05336C12.234 7.93642 13.547 2.84138 17.382 2.84138C19.602 2.84138 22 4.38814 22 7.83071C22 11.727 18.373 16.2776 12 20.4252C5.627 16.2776 2 11.727 2 7.83071C2 4.35623 4.369 2.83939 6.577 2.83939C10.5 2.83939 11.722 7.95138 12 9.05336ZM0 7.83071C0 11.8876 3.06 17.2858 12 22.7867C20.94 17.2858 24 11.8876 24 7.83071C24 -0.109532 14.352 -1.17262 12 4.10392C9.662 -1.1437 0 -0.154409 0 7.83071Z" fill="#2F3035"/>
</svg>
