<svg width="79" height="72" viewBox="0 0 79 72" fill="none" xmlns="http://www.w3.org/2000/svg">
<path d="M59.0441 8.86314C58.3406 8.16168 57.2364 8.05824 56.4141 8.61704C53.3163 10.7228 37.7781 21.3115 36.1082 22.9767C33.6866 25.3918 33.6866 29.3213 36.1082 31.7364C37.3191 32.9438 38.9097 33.5476 40.5001 33.5476C42.0905 33.5476 43.681 32.9438 44.8919 31.7364C46.5618 30.0711 57.1794 14.5754 59.291 11.4861C59.8511 10.6661 59.7475 9.56482 59.0441 8.86314ZM41.9639 28.8165C41.1568 29.6216 39.8433 29.6216 39.0362 28.8165C38.229 28.0116 38.2288 26.7021 39.0358 25.8971C39.6846 25.2576 44.0961 22.12 49.5239 18.3575C45.7511 23.7704 42.6049 28.1696 41.9639 28.8165Z" fill="#2F3035"/>
<path d="M23.5473 36.9596L20.9915 38.203C19.1214 34.8745 18.1406 31.1595 18.1406 27.3565C18.1406 24.5702 18.6558 21.9015 19.5961 19.4403L22.5246 20.8412C22.8134 20.9793 23.1183 21.0448 23.4186 21.0448C24.1901 21.0448 24.9307 20.6127 25.2867 19.8726C25.7811 18.8445 25.3463 17.6112 24.3153 17.118L21.4239 15.7349C25.0177 9.88986 31.2356 5.81475 38.4298 5.15303V8.25837C38.4298 9.39868 39.3567 10.323 40.5001 10.323C41.6435 10.323 42.5704 9.39868 42.5704 8.25837V5.15148C45.037 5.37539 47.4236 6.00181 49.6893 7.02175C50.7312 7.49094 51.9575 7.02856 52.428 5.98952C52.8985 4.95018 52.435 3.72739 51.3928 3.25819C47.9596 1.7127 44.2948 0.928955 40.5 0.928955C33.4216 0.928955 26.7669 3.67783 21.7616 8.66934C16.7565 13.661 14 20.2975 14 27.3565C14 32.5729 15.5525 37.6461 18.4898 42.0274C18.8854 42.6174 19.5395 42.9448 20.2122 42.9448C20.518 42.9448 20.8277 42.8772 21.1187 42.7356L25.3628 40.671C26.3905 40.171 26.8172 38.935 26.3159 37.9101C25.8145 36.8853 24.575 36.4599 23.5473 36.9596Z" fill="#2F3035"/>
<path d="M64.6643 16.4936C64.194 15.4544 62.968 14.9919 61.9255 15.4613C60.8834 15.9305 60.42 17.1533 60.8905 18.1925C62.197 21.0787 62.8594 24.1619 62.8594 27.3566C62.8594 31.1653 61.8754 34.8863 59.9998 38.2185L57.3315 36.9513C56.2994 36.4612 55.0639 36.8982 54.5722 37.9278C54.0806 38.9573 54.519 40.1893 55.5514 40.6796L59.899 42.7442C60.185 42.88 60.4882 42.9449 60.788 42.9449C61.4608 42.9449 62.1151 42.6172 62.5102 42.0276C65.4475 37.6462 67.0001 32.5729 67.0001 27.3566C67.0001 23.5722 66.2142 19.9173 64.6643 16.4936Z" fill="#2F3035"/>
<path d="M0.9 71C0.833333 71 0.8 70.9667 0.8 70.9L0.84 57.16C0.84 57.1067 0.866667 57.08 0.92 57.08L4.66 57.06C5.39333 57.0467 6.06 57.22 6.66 57.58C7.27333 57.94 7.76 58.4267 8.12 59.04C8.48 59.64 8.66 60.3067 8.66 61.04V66.78C8.66 67.5533 8.47333 68.26 8.1 68.9C7.72667 69.5267 7.22667 70.0267 6.6 70.4C5.97333 70.7733 5.26667 70.9667 4.48 70.98L0.9 71ZM3.24 68.54H4.48C4.97333 68.54 5.38667 68.3667 5.72 68.02C6.06667 67.6733 6.24 67.26 6.24 66.78V61.02C6.24 60.5933 6.08 60.2267 5.76 59.92C5.45333 59.6 5.08667 59.4467 4.66 59.46L3.26 59.48L3.24 68.54ZM10.3136 71C10.2603 71 10.2336 70.9667 10.2336 70.9L10.2736 57.16C10.2736 57.1067 10.3003 57.08 10.3536 57.08H14.3936C15.1136 57.08 15.7736 57.26 16.3736 57.62C16.9869 57.9667 17.4736 58.44 17.8336 59.04C18.1936 59.6267 18.3736 60.2933 18.3736 61.04C18.3736 61.5333 18.3003 61.98 18.1536 62.38C18.0069 62.7667 17.8336 63.1 17.6336 63.38C17.4336 63.6467 17.2536 63.8467 17.0936 63.98C17.8136 64.78 18.1736 65.72 18.1736 66.8L18.1936 70.9C18.1936 70.9667 18.1603 71 18.0936 71H15.8336C15.7803 71 15.7536 70.98 15.7536 70.94V66.8C15.7536 66.32 15.5803 65.9067 15.2336 65.56C14.9003 65.2 14.4869 65.02 13.9936 65.02H12.6736L12.6536 70.9C12.6536 70.9667 12.6269 71 12.5736 71H10.3136ZM12.6736 62.62H14.3936C14.8069 62.62 15.1736 62.4667 15.4936 62.16C15.8136 61.8533 15.9736 61.48 15.9736 61.04C15.9736 60.6133 15.8136 60.2467 15.4936 59.94C15.1869 59.6333 14.8203 59.48 14.3936 59.48H12.6736V62.62ZM19.982 71C19.9154 71 19.882 70.9667 19.882 70.9L19.902 57.16C19.902 57.1067 19.9287 57.08 19.982 57.08H22.222C22.2754 57.08 22.302 57.1067 22.302 57.16L22.322 70.9C22.322 70.9667 22.2954 71 22.242 71H19.982ZM26.3213 71C26.2679 71 26.2346 70.9667 26.2212 70.9L23.4613 57.16C23.4479 57.1067 23.4746 57.08 23.5413 57.08H25.8013C25.8546 57.08 25.8879 57.1067 25.9013 57.16L27.5413 66.32L29.1413 57.16C29.1546 57.1067 29.1879 57.08 29.2413 57.08H31.4813C31.5479 57.08 31.5746 57.1067 31.5613 57.16L28.8413 70.9C28.8279 70.9667 28.7946 71 28.7413 71H26.3213ZM32.8136 71C32.7603 71 32.7336 70.9667 32.7336 70.9L32.7536 57.16C32.7536 57.1067 32.7803 57.08 32.8336 57.08H39.2536C39.3069 57.08 39.3336 57.1133 39.3336 57.18V59.42C39.3336 59.4733 39.3069 59.5 39.2536 59.5H35.1536V62.62H39.2536C39.3069 62.62 39.3336 62.6467 39.3336 62.7L39.3536 64.96C39.3536 65.0133 39.3269 65.04 39.2736 65.04H35.1536V68.54H39.2736C39.3269 68.54 39.3536 68.5733 39.3536 68.64V70.92C39.3536 70.9733 39.3269 71 39.2736 71H32.8136ZM44.1808 71C44.1274 71 44.1008 70.9667 44.1008 70.9L44.1408 57.16C44.1408 57.1067 44.1674 57.08 44.2208 57.08H46.6608C46.7141 57.08 46.7608 57.1067 46.8008 57.16L48.6208 59.8L50.4408 57.16C50.4808 57.1067 50.5274 57.08 50.5808 57.08H53.0408C53.0941 57.08 53.1208 57.1067 53.1208 57.16L53.1608 70.9C53.1608 70.9667 53.1341 71 53.0808 71H50.8208C50.7674 71 50.7408 70.9667 50.7408 70.9L50.7208 60.7L48.6208 63.74L46.5408 60.7L46.5208 70.9C46.5208 70.9667 46.4941 71 46.4408 71H44.1808ZM58.543 71.2C57.823 71.2 57.163 71.02 56.563 70.66C55.9763 70.2867 55.503 69.8 55.143 69.2C54.783 68.5867 54.603 67.9133 54.603 67.18L54.623 60.84C54.623 60.1067 54.7963 59.44 55.143 58.84C55.503 58.24 55.983 57.76 56.583 57.4C57.183 57.04 57.8363 56.86 58.543 56.86C59.263 56.86 59.9163 57.04 60.503 57.4C61.0896 57.76 61.5563 58.24 61.903 58.84C62.263 59.44 62.443 60.1067 62.443 60.84L62.463 67.18C62.463 67.9133 62.283 68.5867 61.923 69.2C61.5763 69.8 61.103 70.2867 60.503 70.66C59.9163 71.02 59.263 71.2 58.543 71.2ZM58.543 68.78C58.943 68.78 59.2896 68.62 59.583 68.3C59.8896 67.9667 60.043 67.5933 60.043 67.18L60.023 60.84C60.023 60.4 59.883 60.0267 59.603 59.72C59.323 59.4133 58.9696 59.26 58.543 59.26C58.1296 59.26 57.7763 59.4133 57.483 59.72C57.1896 60.0133 57.043 60.3867 57.043 60.84V67.18C57.043 67.62 57.1896 68 57.483 68.32C57.7763 68.6267 58.1296 68.78 58.543 68.78ZM65.7297 71C65.6764 71 65.6497 70.9667 65.6497 70.9V59.5H63.0497C62.983 59.5 62.9497 59.4667 62.9497 59.4L62.9697 57.16C62.9697 57.1067 62.9964 57.08 63.0497 57.08H70.6497C70.7164 57.08 70.7497 57.1067 70.7497 57.16V59.4C70.7497 59.4667 70.723 59.5 70.6697 59.5H68.0497L68.0697 70.9C68.0697 70.9667 68.043 71 67.9897 71H65.7297ZM74.9883 71.2C74.2683 71.2 73.6083 71.02 73.0083 70.66C72.4216 70.2867 71.9483 69.8 71.5883 69.2C71.2283 68.5867 71.0483 67.9133 71.0483 67.18L71.0683 60.84C71.0683 60.1067 71.2416 59.44 71.5883 58.84C71.9483 58.24 72.4283 57.76 73.0283 57.4C73.6283 57.04 74.2816 56.86 74.9883 56.86C75.7083 56.86 76.3616 57.04 76.9483 57.4C77.5349 57.76 78.0016 58.24 78.3483 58.84C78.7083 59.44 78.8883 60.1067 78.8883 60.84L78.9083 67.18C78.9083 67.9133 78.7283 68.5867 78.3683 69.2C78.0216 69.8 77.5483 70.2867 76.9483 70.66C76.3616 71.02 75.7083 71.2 74.9883 71.2ZM74.9883 68.78C75.3883 68.78 75.7349 68.62 76.0283 68.3C76.3349 67.9667 76.4883 67.5933 76.4883 67.18L76.4683 60.84C76.4683 60.4 76.3283 60.0267 76.0483 59.72C75.7683 59.4133 75.4149 59.26 74.9883 59.26C74.5749 59.26 74.2216 59.4133 73.9283 59.72C73.6349 60.0133 73.4883 60.3867 73.4883 60.84V67.18C73.4883 67.62 73.6349 68 73.9283 68.32C74.2216 68.6267 74.5749 68.78 74.9883 68.78Z" fill="#2F3035"/>
</svg>
